<svg xmlns="http://www.w3.org/2000/svg" width="240" height="277"><path fill="#f0b67b" d="m125.547.903 2.572 1.292 2.978 1.475 3.217 1.638 3.426 1.71c3.092 1.543 6.176 3.1 9.26 4.661 3.227 1.63 6.461 3.248 9.695 4.867a6621 6621 0 0 1 16.263 8.18c7.648 3.858 15.305 7.701 22.963 11.54a23578 23578 0 0 1 19.751 9.92q6.333 3.184 12.661 6.376l3.248 1.633 2.935 1.483 2.566 1.293C239 58 239 58 240 59c.097 2.05.122 4.104.12 6.157l.003 1.97c.002 2.194-.004 4.388-.01 6.582l.001 4.7q-.001 6.4-.013 12.8-.007 6.68-.008 13.36-.005 12.66-.021 25.319-.015 14.408-.022 28.817-.016 29.648-.05 59.295c-20.496 10.885-41.233 21.282-61.974 31.69q-6.879 3.452-13.747 6.924a5200 5200 0 0 1-16.736 8.418 1806 1806 0 0 0-6.34 3.2c-2.937 1.487-5.881 2.96-8.827 4.429l-2.621 1.34-2.44 1.206-2.1 1.056c-3.8 1.265-6.997 1.169-10.762-.166l-2.572-1.292-2.978-1.475-3.217-1.638-3.426-1.71c-3.092-1.543-6.176-3.1-9.26-4.661-3.227-1.63-6.461-3.248-9.695-4.867a6621 6621 0 0 1-16.263-8.18c-7.648-3.858-15.305-7.701-22.963-11.54q-8.91-4.47-17.817-8.949a9896 9896 0 0 1-14.595-7.347l-3.248-1.633-2.935-1.483-2.566-1.293C1 219 1 219 0 218a128 128 0 0 1-.12-6.157l-.003-1.97c-.002-2.194.004-4.388.01-6.582l-.001-4.7q.001-6.4.013-12.8c.006-4.453.006-8.906.008-13.36q.005-12.66.021-25.319.015-14.408.022-28.817Q-.034 88.647 0 59c20.496-10.885 41.233-21.282 61.974-31.69q6.879-3.452 13.747-6.924a5200 5200 0 0 1 16.736-8.418q3.173-1.594 6.34-3.2c2.937-1.487 5.881-2.96 8.827-4.429L110.245 3l2.44-1.206 2.1-1.056c3.8-1.265 6.997-1.169 10.762.166"/><path fill="#181817" d="M146 65a258 258 0 0 0 5.737-.722c13.284-1.63 25.725-1.2 36.763 6.972 4.406 3.172 7.698 3.066 12.992 2.793 3.664-.063 5.578.776 8.508 2.957 5.699 6.344 8.517 11.837 8.313 20.438-.679 5.562-3.11 9.778-7.313 13.437-4.317 3.058-6.649 4.422-12 4.125l-.375 3.313c-.413 3.393-1.015 6.71-1.687 10.062-1.604 8.824-2.065 14.085 3.062 21.625a96 96 0 0 1 1 6.063c.678 4.873 1.572 7.301 5 10.937 3.695 7.532 5.568 14.627 5 23l-2 3-2.844-.09c-3.244-.224-3.244-.224-5.5 1.961l-2.156 2.566-2.332 2.77a130 130 0 0 0-6.766 9.617 150 150 0 0 1-4.527 6.613l-1.383 1.934C182 220 182 220 179.918 220.855c-2.201 1.036-2.201 1.036-2.86 3.825l-.62 3.195c-1.422 7.187-1.422 7.187-4.438 10.125h-4c-3.668-4.232-4.073-9.653-5-15l-17 1-.812 4.188c-.826 3.763-1.933 6.634-4.188 9.812-2.312-.187-2.312-.187-5-1-2.501-2.964-3.147-5.653-3.75-9.375-.926-4.686-2.911-6.644-6.398-9.758-2.058-2.074-3.306-4.132-4.727-6.68-2.774-4.893-6.183-8.755-10-12.863C104 190.531 104 190.531 104 185l-3 1a81 81 0 0 1-4.687.063l-2.45-.028L92 186c-.635-4.383-1.19-8.348 1.5-12.082 4.378-3.925 9.178-6.49 14.5-8.918 2.277-2.277 1.898-9.048 2.207-12.168 1.301-6.29 4.523-10.275 9.793-13.832a66 66 0 0 1 4-1l.148-3.008c1.175-21.961 1.175-21.961 3.852-29.992l-2.687-.25c-5.102-1.155-7.36-3.591-10.626-7.562-3.079-5.83-2.465-12.84-1.687-19.188 2.16-6.467 7.302-10.555 13-14 6.791-2.264 13.37-1.21 20 1"/><path fill="#d15131" d="m125.547.903 2.572 1.292 2.978 1.475 3.217 1.638 3.426 1.71c3.092 1.543 6.176 3.1 9.26 4.661 3.227 1.63 6.461 3.248 9.695 4.867a6621 6621 0 0 1 16.263 8.18c7.648 3.858 15.305 7.701 22.963 11.54a23578 23578 0 0 1 19.751 9.92q6.333 3.184 12.661 6.376l3.248 1.633 2.935 1.483 2.566 1.293C239 58 239 58 240 59c.097 2.05.122 4.104.12 6.157l.003 1.97c.002 2.194-.004 4.388-.01 6.582l.001 4.7q-.001 6.4-.013 12.8-.007 6.68-.008 13.36-.005 12.66-.021 25.319-.015 14.408-.022 28.817-.016 29.648-.05 59.295c-20.496 10.885-41.233 21.282-61.974 31.69q-6.879 3.452-13.747 6.924a5200 5200 0 0 1-16.736 8.418 1806 1806 0 0 0-6.34 3.2c-2.937 1.487-5.881 2.96-8.827 4.429l-2.621 1.34-2.44 1.206-2.1 1.056c-3.8 1.265-6.997 1.169-10.762-.166l-2.572-1.292-2.978-1.475-3.217-1.638-3.426-1.71c-3.092-1.543-6.176-3.1-9.26-4.661-3.227-1.63-6.461-3.248-9.695-4.867a6621 6621 0 0 1-16.263-8.18c-7.648-3.858-15.305-7.701-22.963-11.54q-8.91-4.47-17.817-8.949a9896 9896 0 0 1-14.595-7.347l-3.248-1.633-2.935-1.483-2.566-1.293C1 219 1 219 0 218a128 128 0 0 1-.12-6.157l-.003-1.97c-.002-2.194.004-4.388.01-6.582l-.001-4.7q.001-6.4.013-12.8c.006-4.453.006-8.906.008-13.36q.005-12.66.021-25.319.015-14.408.022-28.817Q-.034 88.647 0 59c20.496-10.885 41.233-21.282 61.974-31.69q6.879-3.452 13.747-6.924a5200 5200 0 0 1 16.736-8.418q3.173-1.594 6.34-3.2c2.937-1.487 5.881-2.96 8.827-4.429L110.245 3l2.44-1.206 2.1-1.056c3.8-1.265 6.997-1.169 10.762.166m-8.473 2.75-2.22 1.116-2.556 1.265-2.796 1.423-2.952 1.473c-3.238 1.618-6.468 3.25-9.698 4.883l-6.755 3.384q-7.099 3.558-14.188 7.133-9.045 4.559-18.1 9.095a21860 21860 0 0 0-20.636 10.36 8865 8865 0 0 0-9.381 4.723l-2.735 1.373C17.962 53.464 11.007 57.227 4 61v151h9v-4c13.7-.232 27.398-.41 41.1-.518 6.362-.052 12.722-.123 19.084-.236 6.14-.11 12.28-.169 18.42-.195q3.513-.027 7.025-.108c18.425-.408 18.425-.408 23.303 3.264 1.784 2.553 2.912 4.917 4.068 7.793l2.75 2.438c2.962 3.373 3.55 6.607 4.477 10.94.84 2.848 1.672 4.526 3.773 6.622h4l1.938-3.062 1.09-1.723c1.389-2.895 1.389-2.895 1.972-9.215l17-1 .813 4.688c.784 3.98 1.753 6.992 4.187 10.312 3.142-.255 4.582-.52 6.688-2.937 1.228-2.866 1.701-5.137 2.187-8.188.477-2.66.477-2.66 1.125-4.875 2.25-1.562 2.25-1.562 5-3 1.581-2.079 2.936-4.258 4.332-6.465 2.352-3.574 5.008-6.857 7.723-10.16a129 129 0 0 0 3.578-4.562c1.377-1.789 2.628-3.374 4.367-4.813 3.25-.25 3.25-.25 6 0 2.543-3.815 2.561-6.594 2-11-1.66-7.014-3.588-13.265-8-19-1.682-2.889-2.223-5.052-2.375-8.375-.302-3.507-.577-4.557-2.687-7.562-4.67-7.382-1.37-16.736.406-24.743.785-3.41.785-3.41.656-7.32l3.125-.25c4.943-.957 7.98-3.12 11.753-6.365 2.531-1.652 3.892-1.736 6.888-1.678l2.695.03 2.789.076 2.836.04q3.458.054 6.914.147v-3h-3v-5h3V61l-16-8-22.578-11.29-2.277-1.137-14.995-7.497q-10.32-5.157-20.63-10.33l-12.216-6.121-6.303-3.162q-4.603-2.31-9.208-4.615l-2.85-1.433-2.634-1.317L124 4.94c-3.355-1.705-3.355-1.705-6.925-1.286"/><path fill="#d35e33" d="M80 33a3244 3244 0 0 1 38.315-.622 1408 1408 0 0 0 17.798-.283 977 977 0 0 1 17.234-.234q3.26-.031 6.516-.13c16.494-.478 27.629 3.281 41.708 11.826 3.463 2.057 7.04 3.844 10.66 5.607l3.548 1.77 3.409 1.691 3.63 1.809 6.523 3.244Q232.672 59.335 236 61v38h-3v5h3v3h-20l1-7c.849-7.821-.643-13.417-5-20-3.376-3.74-6.202-4.5-11.031-4.941-2.135-.108-2.135-.108-4.906.254-3.41-.348-4.502-1.119-7.25-3.063-12.002-8.371-25.085-8.654-39.22-6.672-3.993.469-5.83-.324-9.593-1.578-7.132-.78-13.121-.356-19 4-4.059 3.873-6.757 7.784-7.371 13.39-.244 9.66-.244 9.66 3.941 18.16 3.06 3.102 6.176 4.662 10.43 5.45-.875 7.875-.875 7.875-2 9-3.03.089-6.037.115-9.066.098l-2.754-.005a3599 3599 0 0 1-8.743-.03q-2.954-.009-5.912-.014Q92.263 114.032 85 114q-.722-1.874-1.437-3.75l-.81-2.11c-1.555-4.417-1.898-8.22-1.958-12.928l-.03-2.041q-.047-3.328-.081-6.655l-.063-4.624q-.082-6.076-.153-12.152-.077-6.204-.161-12.408Q80.145 45.167 80 33"/><path fill="#af402a" d="m125.547.903 2.572 1.292 2.978 1.475 3.217 1.638 3.426 1.71c3.092 1.543 6.176 3.1 9.26 4.661 3.227 1.63 6.461 3.248 9.695 4.867a6621 6621 0 0 1 16.263 8.18c7.648 3.858 15.305 7.701 22.963 11.54a23578 23578 0 0 1 19.751 9.92q6.333 3.184 12.661 6.376l3.248 1.633 2.935 1.483 2.566 1.293C239 58 239 58 240 59c.097 2.05.122 4.104.12 6.157l.003 1.97c.002 2.194-.004 4.388-.01 6.582l.001 4.7q-.001 6.4-.013 12.8-.007 6.68-.008 13.36-.005 12.66-.021 25.319-.015 14.408-.022 28.817-.016 29.648-.05 59.295c-20.496 10.885-41.233 21.282-61.974 31.69q-6.879 3.452-13.747 6.924a5200 5200 0 0 1-16.736 8.418 1806 1806 0 0 0-6.34 3.2c-2.937 1.487-5.881 2.96-8.827 4.429l-2.621 1.34-2.44 1.206-2.1 1.056c-3.8 1.265-6.997 1.169-10.762-.166l-2.572-1.292-2.978-1.475-3.217-1.638-3.426-1.71c-3.092-1.543-6.176-3.1-9.26-4.661-3.227-1.63-6.461-3.248-9.695-4.867a6621 6621 0 0 1-16.263-8.18c-7.648-3.858-15.305-7.701-22.963-11.54q-8.91-4.47-17.817-8.949a9896 9896 0 0 1-14.595-7.347l-3.248-1.633-2.935-1.483-2.566-1.293C1 219 1 219 0 218a128 128 0 0 1-.12-6.157l-.003-1.97c-.002-2.194.004-4.388.01-6.582l-.001-4.7q.001-6.4.013-12.8c.006-4.453.006-8.906.008-13.36q.005-12.66.021-25.319.015-14.408.022-28.817Q-.034 88.647 0 59c20.496-10.885 41.233-21.282 61.974-31.69q6.879-3.452 13.747-6.924a5200 5200 0 0 1 16.736-8.418q3.173-1.594 6.34-3.2c2.937-1.487 5.881-2.96 8.827-4.429L110.245 3l2.44-1.206 2.1-1.056c3.8-1.265 6.997-1.169 10.762.166m-8.473 2.75-2.22 1.116-2.556 1.265-2.796 1.423-2.952 1.473c-3.238 1.618-6.468 3.25-9.698 4.883l-6.755 3.384q-7.099 3.558-14.188 7.133-9.045 4.559-18.1 9.095a21860 21860 0 0 0-20.636 10.36 8865 8865 0 0 0-9.381 4.723l-2.735 1.373C17.962 53.464 11.007 57.227 4 61v151h9v-4c13.7-.232 27.398-.41 41.1-.518 6.362-.052 12.722-.123 19.084-.236 6.14-.11 12.28-.169 18.42-.195q3.513-.027 7.025-.108c18.418-.408 18.418-.408 23.298 3.253 1.79 2.557 2.915 4.922 4.073 7.804l2.875 2.75c2.57 2.72 2.869 4.574 3.125 8.25l-2.934-.105c-4.507.005-8.733.862-13.128 1.793l-2.59.534a1458 1458 0 0 0-20.285 4.403l-2.815.624c-4.251.967-8.243 1.99-12.248 3.751-4.962 1.498-9.968 2.764-15 4v2a3642 3642 0 0 0 20.76 10.613 1588 1588 0 0 1 9.64 4.927q4.648 2.395 9.318 4.746c1.758.891 3.507 1.8 5.256 2.71l3.274 1.639 2.86 1.46c7.593 2.376 14.117-1.867 20.737-5.241l3.24-1.622a2251 2251 0 0 0 8.738-4.407c3.051-1.543 6.108-3.074 9.165-4.607a8187 8187 0 0 0 17.339-8.73 16136 16136 0 0 1 29.228-14.706l1.854-.932q6.332-3.183 12.66-6.377l6.604-3.327 3.05-1.542 2.787-1.402 2.422-1.223C234 217 234 217 237 216V61l-25-12c-4.863-2.402-9.72-4.81-14.562-7.25l-6.63-3.328-3.359-1.69a5688 5688 0 0 0-10.8-5.408q-8.574-4.284-17.14-8.582-6.101-3.06-12.205-6.117l-6.303-3.162q-4.603-2.31-9.208-4.615l-2.85-1.433-2.634-1.317L124 4.94c-3.355-1.705-3.355-1.705-6.925-1.286"/><path fill="#8cf0de" d="m137.313 139.625 3.184.046c19.61.41 37.019 3.94 55.503 10.329l.335 1.956a2651 2651 0 0 0 1.54 8.794l.527 3.078.528 2.969.476 2.73c.58 2.418 1.446 4.281 2.594 6.473.953 5.82.696 10.682-2.562 15.688-2.682 3.556-5.65 6.84-8.645 10.132-2.728 3.316-4.853 6.965-7.02 10.664-2.655 3.767-5.397 6.057-9.773 7.516-1.8.07-3.602.084-5.402.063l-3.198-.024-6.664-.078-3.2-.024-2.926-.035c-2.388.09-4.323.456-6.61 1.098-5.478.534-10.29.888-15.25-1.687-3.61-3.705-5.985-8.521-8.594-12.946-2.67-4.171-5.767-7.668-9.176-11.246-4.321-4.628-6.387-8.185-6.34-14.71.44-2.944 1.486-5.212 2.735-7.911 2.864-6.306 3.481-12.011 3.973-18.836.857-4.816 2.33-7.906 6.298-10.91 5.696-3.32 11.218-3.296 17.667-3.129"/><path fill="#c8562f" d="M76 134h32v14l-2 1-1.375-2.937c-1.283-3.134-1.283-3.134-3.625-4.063l1 5-2 1.375L98 150v2l12 2 1-2c.118 10.565.118 10.565-2.379 13.77-1.817 1.28-3.616 2.271-5.621 3.23-5.51 2.856-5.51 2.856-10 7-.576 2.502-.576 2.502-.687 5.188L92 186l12-1 1.063 3c2.043 4.794 5.432 8.22 8.937 12 5 5.648 5 5.648 5 8H13v4H4q-.186-8.056-.275-16.113a537 537 0 0 0-.102-5.47C3.17 170.969 3.17 170.969 9 163h1l1 17 .438-6.687c.274-4.193.63-8.214 1.562-12.313H9v-5h65l1-12z"/><path fill="#f9f9f9" d="m143 66 1 2-4 3 2.047-.621 2.703-.817 2.672-.808C157.768 65.729 171.207 64.942 181 70c.84.425 1.678.85 2.543 1.29 5.705 3.15 9.52 6.53 13.457 11.71l-1-6c4.398-.303 7.117-.381 11.188 1.375 4.718 4.404 7.999 10.191 8.375 16.75-.758 5.217-1.994 9.849-6.282 13.23-4.387 2.575-8.184 3.795-13.219 3.832l-2.59.043c-2.611-.243-4.227-.912-6.472-2.23.998-2.993 1.752-3.948 4-6l-1.828 1.059-2.422 1.379-2.39 1.37c-5.32 2.687-10.646 2.41-16.485 2.442l-2.727.063c-8.754.05-16.816-1.148-23.273-7.5l-2.258-2.168L138 99v4c-9.73.623-9.73.623-14.437-1.687-4.39-3.961-7.222-7.157-7.872-13.168-.266-6.892-.048-11.383 4.664-16.625 6.67-6.164 14.049-5.673 22.645-5.52"/><path fill="#060301" d="m125.547.903 2.572 1.292 2.978 1.475 3.217 1.638 3.426 1.71c3.092 1.543 6.176 3.1 9.26 4.661 3.227 1.63 6.461 3.248 9.695 4.867a6621 6621 0 0 1 16.263 8.18c7.648 3.858 15.305 7.701 22.963 11.54a23578 23578 0 0 1 19.751 9.92q6.333 3.184 12.661 6.376l3.248 1.633 2.935 1.483 2.566 1.293C239 58 239 58 240 59c.097 2.05.122 4.104.12 6.157l.003 1.97c.002 2.194-.004 4.388-.01 6.582l.001 4.7q-.001 6.4-.013 12.8-.007 6.68-.008 13.36-.005 12.66-.021 25.319-.015 14.408-.022 28.817-.016 29.648-.05 59.295c-20.496 10.885-41.233 21.282-61.974 31.69q-6.879 3.452-13.747 6.924a5200 5200 0 0 1-16.736 8.418 1806 1806 0 0 0-6.34 3.2c-2.937 1.487-5.881 2.96-8.827 4.429l-2.621 1.34-2.44 1.206-2.1 1.056c-3.8 1.265-6.997 1.169-10.762-.166l-2.572-1.292-2.978-1.475-3.217-1.638-3.426-1.71c-3.092-1.543-6.176-3.1-9.26-4.661-3.227-1.63-6.461-3.248-9.695-4.867a6621 6621 0 0 1-16.263-8.18c-7.648-3.858-15.305-7.701-22.963-11.54q-8.91-4.47-17.817-8.949a9896 9896 0 0 1-14.595-7.347l-3.248-1.633-2.935-1.483-2.566-1.293C1 219 1 219 0 218a128 128 0 0 1-.12-6.157l-.003-1.97c-.002-2.194.004-4.388.01-6.582l-.001-4.7q.001-6.4.013-12.8c.006-4.453.006-8.906.008-13.36q.005-12.66.021-25.319.015-14.408.022-28.817Q-.034 88.647 0 59c20.496-10.885 41.233-21.282 61.974-31.69q6.879-3.452 13.747-6.924a5200 5200 0 0 1 16.736-8.418q3.173-1.594 6.34-3.2c2.937-1.487 5.881-2.96 8.827-4.429L110.245 3l2.44-1.206 2.1-1.056c3.8-1.265 6.997-1.169 10.762.166m-8.47 2.75-2.216 1.116-2.552 1.265-2.79 1.423-2.949 1.473c-3.232 1.618-6.458 3.25-9.683 4.883l-6.747 3.384a7248 7248 0 0 0-15.993 8.05c-6.598 3.329-13.201 6.644-19.805 9.96q-14.587 7.325-29.16 14.674C17.796 53.605 10.398 57.301 3 61v155l56.563 28.563 17.842 9.045c5.289 2.66 5.289 2.66 10.58 5.314q3.532 1.775 7.054 3.573c3.557 1.815 7.129 3.601 10.701 5.386l3.16 1.63c7.255 3.58 7.255 3.58 15.1 2.489 3.701-1.556 7.269-3.323 10.845-5.146l3.24-1.622a2251 2251 0 0 0 8.738-4.407c3.051-1.543 6.108-3.074 9.165-4.607a8187 8187 0 0 0 17.339-8.73 16136 16136 0 0 1 29.228-14.706l1.854-.932q6.332-3.183 12.66-6.377l6.604-3.327 3.05-1.542 2.787-1.402 2.422-1.223C234 217 234 217 237 216V61l-25-12c-4.863-2.402-9.72-4.81-14.562-7.25l-6.63-3.328-3.359-1.69a5688 5688 0 0 0-10.8-5.408q-8.574-4.284-17.14-8.582-6.101-3.06-12.205-6.117l-6.303-3.162q-4.603-2.31-9.208-4.615l-2.85-1.433-2.634-1.317L124 4.94c-3.353-1.705-3.353-1.705-6.922-1.286"/><path fill="#38c5b4" d="m138.5 139.75 3.36.055q4.07.07 8.14.195v1l-2.527.332c-7.476 1.053-14.669 2.266-21.473 5.668-1.134 2.017-1.134 2.017-2 4h-3l-.875 2.813C119 157 119 157 117 160c-.197 2.56-.142 4.544.625 7 .375 2 .375 2-.562 4.125-2.026 5.481-1.314 11.116-.5 16.813 1.21 3.4 1.21 3.4 4.937 4.812L125 194c2 3 2 3 4 9l13 2 1-5c2.111-2.154 3.467-2.905 6.438-3.434 6.919-.01 6.919-.01 10.187 2.246C161 201 161 201 161 204c8.564-2.855 12.033-9.07 16.781-16.277 1.225-1.732 2.558-3.266 3.977-4.84 2.372-3.05 2.854-4.355 2.93-8.133.131-4.569.131-4.569 2.312-6.75.167-3.583.167-3.583 0-7l-6-2-1-8-3-1v-5l-2-1c4.865.66 9.26 1.966 13.875 3.563l2.086.708q2.521.86 5.039 1.729l.335 1.956a2651 2651 0 0 0 1.54 8.794l.527 3.078.528 2.969.476 2.73c.58 2.418 1.446 4.281 2.594 6.473.953 5.82.696 10.682-2.562 15.688-2.682 3.556-5.65 6.84-8.645 10.132-2.728 3.316-4.853 6.965-7.02 10.664-2.655 3.767-5.397 6.057-9.773 7.516-1.8.07-3.602.084-5.402.063l-3.198-.024-6.664-.078-3.2-.024-2.926-.035c-2.388.09-4.323.456-6.61 1.098-5.478.534-10.29.888-15.25-1.687-3.61-3.705-5.985-8.521-8.594-12.946-2.67-4.171-5.767-7.668-9.176-11.246-4.321-4.628-6.387-8.185-6.34-14.71.44-2.944 1.486-5.212 2.735-7.911 2.864-6.306 3.481-12.011 3.973-18.836.857-4.816 2.34-7.861 6.256-10.914 5.994-3.564 12.113-3.211 18.896-3"/><path fill="#e68141" d="M109 162c-.168 1.813-.168 1.813-1 4-2.363 1.563-2.363 1.563-5.312 3-3.882 1.907-6.98 3.572-9.688 7-.689 2.571-.689 2.571-.75 5.25L92 186l12-1 1.125 3.063c1.571 3.757 3.804 6.307 6.668 9.164C113 199 113 199 113 204H85l-.187-7.375-.083-2.318c-.022-1.771.121-3.542.27-5.307l3-2-24 9c5.734-1.625 5.734-1.625 11.25-3.625C79 191 79 191 82 191v11c-13.326 1.213-26.63 1.103-40 1q.213-6.344.438-12.687l.119-3.573.127-3.564.11-3.222c.294-5.658.771-11.305 1.206-16.954h39v17h2v-17c8.039-.857 15.918-1.116 24-1"/><path fill="#e89864" d="M121.78 3.566 124 5l2.548 1.214 2.73 1.368 3.114 1.557 3.33 1.673 3.448 1.726q4.523 2.266 9.045 4.535 4.596 2.305 9.193 4.607 8.087 4.05 16.17 8.106 3.21 1.61 6.422 3.214v1q-14.031.045-28.062.062l-2.095.003C126.55 34.091 103.282 33.818 80 33l.493 2.103c.55 3.144.627 6.056.62 9.248v3.82l-.015 4.099-.005 4.216q-.006 5.53-.024 11.062-.014 5.65-.02 11.302Q81.033 89.925 81 101h-1V39c-8.221.058-8.221.058-15 3-1.785.328-3.579.612-5.375.875-8.817 1.42-16.955 3.735-25.203 7.137a178 178 0 0 1-7.297 2.8l-2.117.77c-2.336.486-3.739.055-6.008-.582q19.41-9.864 38.856-19.661a5391 5391 0 0 0 18.042-9.128 3737 3737 0 0 1 17.41-8.792q3.326-1.675 6.644-3.37a1139 1139 0 0 1 9.3-4.686l2.78-1.439c6.237-3.073 6.237-3.073 9.747-2.358"/><path fill="#e57e3c" d="M180 40c13.547-1.375 21.942 3.12 33.625 9.375q2.598 1.352 5.2 2.695 5.69 2.949 11.346 5.968C232.1 59.052 234.05 60.025 236 61v38h-3v5h3v3h-20l1-7c.849-7.821-.643-13.417-5-20-3.376-3.74-6.202-4.5-11.031-4.941-2.135-.108-2.135-.108-4.906.254-4.163-.425-6.577-2.381-9.915-4.805-2.367-1.74-2.367-1.74-6.148-3.508z"/><path fill="#e57f3c" d="M85 39h43v15l.063 5.5c-.34 3.105-.753 4.191-2.993 6.418-2.382 1.77-2.382 1.77-4.746 3.219-3.796 3.043-5.998 6.407-6.636 11.209-.08 2.546-.038 5.045.062 7.591L114 97H85z"/><path fill="#d38359" d="M236 110v55l-15.25.75-4.794.269c-1.249.05-2.498.1-3.784.153l-3.872.19c-3.3-.362-3.3-.362-5.705-2.197-2.007-2.724-2.254-4.692-2.595-8.04-.53-3.995-.821-5.862-3.125-9.25-4.332-6.643-1.686-15.397-.437-22.812l.347-2.55c.473-2.48.922-4.34 2.215-6.513 2.265-1.274 4.297-1.902 6.828-2.467C216.15 110 216.15 110 236 110"/><path fill="#fbfbfb" d="m144.813 107.375 1.832 1.336c6.088 3.332 12.46 3.589 19.23 3.477l2.396-.009c4.16-.04 8.117-.313 12.229-.992 5.733-.759 9.652 1.974 14.5 4.813l-2 17c-8-1-8-1-11-2a195 195 0 0 0-7 0l2.195.332c5.468.897 10.028 1.828 14.805 4.668v10q-4.439-.965-8.875-1.937l-2.55-.553-2.442-.537-2.254-.492C174 142 174 142 172 141c-2.482-.39-4.943-.719-7.437-1l-2.324-.263c-11.702-1.214-23.485-1.415-35.239-1.737v-9l21-1-20-2c.857-13.857.857-13.857 3-20 5.587-1.277 8.925-1.87 13.813 1.375"/><path fill="#d46136" d="m13 161 1 4h4l1-2h18v9H18l-1 2h19v15H17l-1-12-1 13h18v16H12v-9l-2 10h3v5H4q-.186-8.056-.275-16.113a537 537 0 0 0-.102-5.47C3.17 170.969 3.17 170.969 9 163h1l1 17 .438-6.687c.274-4.193.63-8.214 1.562-12.313"/><path fill="#e47e3c" d="M132 38h46c-1 18-1 18-2 26l-1.893.076q-4.303.177-8.607.362l-2.977.119c-4.386.19-8.709.42-13.058 1.033-3.895.461-5.825-.253-9.465-1.59-2.991-.453-5.988-.73-9-1q-.04-4.281-.062-8.562l-.026-2.424-.01-2.393-.016-2.174c.147-3.167.666-6.308 1.114-9.447"/><path fill="#212927" d="M202 168c3.109 2.534 3.774 4.97 4.688 8.813.25 1.017.502 2.034.761 3.082.863 4.866 1.35 7.908-1.449 12.105l3 1-2.719-.277c-3.35-.023-3.35-.023-5.625 2.148l-2.156 2.566-2.332 2.77a130 130 0 0 0-6.766 9.617 150 150 0 0 1-4.527 6.613l-1.383 1.934C182 220 182 220 179.918 220.855c-2.201 1.036-2.201 1.036-2.86 3.825l-.62 3.195c-1.422 7.187-1.422 7.187-4.438 10.125h-4c-3.668-4.232-4.073-9.653-5-15l-17 1-.812 4.188c-.826 3.763-1.933 6.634-4.188 9.812-2.312-.187-2.312-.187-5-1-2.501-2.964-3.147-5.653-3.75-9.375-.926-4.686-2.911-6.644-6.398-9.758-2.058-2.074-3.306-4.132-4.727-6.68-2.774-4.893-6.183-8.755-10-12.863C104 190.531 104 190.531 104 185l-3 1a81 81 0 0 1-4.687.063l-2.45-.028L92 186l1-3 1 1 .848-1.54c3.029-5.2 6.37-8.822 11.152-12.46 1.312 3.937.243 6.125-1 10h2l.191 1.688c1.116 6.95 4.054 10.333 8.809 15.312 4.83 5.65 9.014 11.34 12.578 17.871 1.62 2.426 2.871 3.704 5.422 5.129 2.91.4 2.91.4 6 .25 1.031-.015 2.063-.03 3.125-.047 2.73-.096 2.73-.096 4.715-.716 2.601-.586 4.925-.548 7.59-.48l3.16.052q3.273.066 6.547.156c7.88.156 7.88.156 14.863-3.215 1.933-2.13 1.933-2.13 3.438-4.625 2.79-4.228 5.729-8.232 8.867-12.207 2.174-2.78 4.256-5.624 6.34-8.473C200 189 200 189 202.375 187.063c2.662-3.38 2.097-6.93 1.625-11.063-.533-2.733-1.22-5.322-2-8"/><path fill="#933a3d" d="M236 61h1v129h-26l-1.312-7.5c-1.048-5.78-2.323-11.095-4.688-16.5 1-1 1-1 3.867-1.114l3.793.016 3.684.008 4.719.028L236 165v-55h-24l4-5v2h20v-3h-3v-5h3z"/><path fill="#f4eab7" d="M196 143h40v22c-4.342.235-8.681.457-13.025.647q-2.215.102-4.429.228c-2.124.118-4.248.21-6.374.297l-3.872.19c-3.3-.362-3.3-.362-5.703-2.195-2.014-2.732-2.291-4.747-2.66-8.105-.506-4.5-1.494-7.256-3.937-11.062z"/><path fill="#c4b393" d="M210 190h27v19h-47c2.377-4.753 5.443-8.104 9-12l2.625-3c2.375-2 2.375-2 5.188-2.312L209 192z"/><path fill="#5ae2ca" d="M175 144c5.76.606 10.72 2.757 16 5l.332 3c.854 8.373.854 8.373 3.293 16.375 1.663 4.385 1.664 8.001 1.375 12.625h-6c.348 1.975.348 1.975 1 4l2 1c-.562 1.813-.562 1.813-2 4l-3.562 1.313L184 193c-1.062 3.589-1.062 3.589-1 7h-6l.875 3.688c.498 3.796.498 3.796-1.04 5.921-5.029 4.212-9.252 4.53-15.523 4.453l-2.126-.013q-2.594-.02-5.186-.049l2.45-2.34c2.674-2.398 2.674-2.398 3.363-5.222C161 204 161 204 164.5 202.563c6.387-2.804 9.583-9.226 13.281-14.84 1.225-1.732 2.558-3.266 3.977-4.84 2.372-3.05 2.854-4.355 2.93-8.133.131-4.569.131-4.569 2.312-6.75.167-3.583.167-3.583 0-7l-6-2-1-8-3-1v-5z"/><path fill="#59dfc7" d="m138.5 139.75 3.36.055q4.07.07 8.14.195v1l-2.527.332c-7.476 1.053-14.669 2.266-21.473 5.668-1.134 2.017-1.134 2.017-2 4h-3l-.875 2.813C119 157 119 157 117 160c-.197 2.56-.142 4.544.625 7 .375 2 .375 2-.562 4.125-2.026 5.481-1.314 11.116-.5 16.813 1.21 3.4 1.21 3.4 4.937 4.812L125 194c2 3 2 3 4 9l13 2 1-4 .684 5.957c.288 2.237.288 2.237 1.316 5.043l3 1v1c-3.667.772-7.262 1.137-11 1.25l-2.437.078c-4.869-.623-7.788-2.355-10.836-6.183l-2.102-3.333c-3.218-4.957-6.55-9.078-10.996-13.03-3.259-3.564-4.121-7.674-4.024-12.442.487-2.886 1.548-5.182 2.77-7.84 2.864-6.306 3.481-12.011 3.973-18.836.857-4.816 2.34-7.861 6.256-10.914 5.994-3.564 12.113-3.211 18.896-3"/><path fill="#d45532" d="M76 134h32v14l-2 1-1.375-2.937c-1.283-3.134-1.283-3.134-3.625-4.063l1 5-2 1.063L98 150v7H9v-1h65l1-12z"/><path fill="#1a1715" d="M115 81h1l.262 2.633c1.107 9.305 1.107 9.305 6.738 16.367 3.226 1.976 6.001 2.357 9.75 2.625l2.984.227L138 103l-1.062-1.812C136 99 136 99 137 96l1.25 1.61c5.3 6.483 10.406 10.09 18.75 11.39 2.935.25 5.871.412 8.813.563l2.388.13q2.9.158 5.799.307v1l-2.152.184-2.786.254c-.916.08-1.833.162-2.777.246-2.247.076-2.247.076-3.285 1.316-7.987.203-14.23-1.877-21-6l-1-1a92 92 0 0 0-5.062-.062l-2.786.027L131 106l-.402 3.613-.536 4.7-.263 2.38-.264 2.295-.238 2.11C129 123 129 123 128 126l1.709.076q3.895.177 7.791.362l2.688.119c5.318.254 10.538.71 15.812 1.443v1h-29v9l2.193-.032c14.421-.18 28.521-.06 42.807 2.032v1a604 604 0 0 1-5.937.563l-3.34.316c-3.534.115-6.721-.184-10.213-.619-4.848-.502-9.703-.527-14.572-.572l-3.143-.088c-6.416-.053-11.566.43-16.795 4.4-3.29 3.857-3.444 7.48-3.812 12.438-.785 8.367-3.46 15.058-7.188 22.562h-2v-8c-5.012 3.844-8.169 7.337-11 13-2-2-2-2-2.625-5.187.8-4.883 2.545-6.247 6.316-9.239 3.302-2.251 6.674-3.916 10.309-5.574 2.277-2.277 1.898-9.048 2.207-12.168 1.301-6.29 4.523-10.275 9.793-13.832a66 66 0 0 1 4-1l.148-3.008c1.175-21.961 1.175-21.961 3.852-29.992l-2.687-.25c-4.423-1.001-6.933-2.736-9.512-6.5C113 93.533 113 93.533 113 91h2z"/><path fill="#d38258" d="M81 101q7.98-.111 15.96-.165 2.715-.022 5.427-.061a848 848 0 0 1 7.812-.067l2.44-.047c4.696-.001 7.446.49 11.361 3.34 2.191.696 2.191.696 4 1-.875 7.875-.875 7.875-2 9-3.03.089-6.037.115-9.066.098l-2.754-.005a3599 3599 0 0 1-8.743-.03q-2.954-.009-5.912-.014Q92.263 114.032 85 114c-3.286-8.429-3.286-8.429-4-13"/><path fill="#f2dccf" d="M65 132c4.196 2.56 7.43 5.287 9 10 .503 5.286.503 5.286 0 8-4.645 4.768-8.48 5.228-14.875 5.313l-2.184.087c-3.448.042-5.53-.11-8.382-2.119-2.65-3.879-2.985-7.657-2.559-12.281 3.53-8.182 10.5-10.703 19-9"/><path fill="#b4402b" d="m189 208 48 1v7c-5.865 2.532-10.229 3.34-16.562 3.063-14.224-.319-28.323 1.335-42.438 2.937l2.25-2.187c3.67-3.754 6.396-7.105 8.75-11.813"/><path fill="#d05231" d="m196 129 1 2h39v12l-41 1c0-11.25 0-11.25 1-15"/><path fill="#191615" d="M146 65a258 258 0 0 0 5.737-.722c13.284-1.63 25.725-1.2 36.763 6.972 4.406 3.172 7.698 3.066 12.992 2.793 3.664-.063 5.578.776 8.508 2.957 5.699 6.344 8.517 11.837 8.313 20.438-.683 5.594-3.205 9.83-7.313 13.624-3 1.938-3 1.938-5.187 1.56L204 112l1.426-1.066c5.656-4.485 8.114-8.424 9.074-15.746-.218-5.314-2.613-9.818-5.5-14.188-3.875-3.456-7.986-3.575-13-4l1.063 1.813C198 81 198 81 197 84l-1.18-1.54C189.422 74.59 182.092 69.763 172 68c-2.924-.278-5.814-.333-8.75-.312l-2.368.006C154.277 67.807 148.3 69.007 142 71c-1.33.343-2.663.68-4 1l5-5c-7.47-.276-14.133-.285-20.75 3.625-5.67 5.984-6.92 12.313-7.25 20.375h-2c-.926-13.492-.926-13.492 3.367-19.281C125.082 62.545 134.126 61.042 146 65"/><path fill="#e27d3d" d="M92 178v8l12-1 1.125 3.063c1.571 3.757 3.804 6.307 6.668 9.164C113 199 113 199 113 204H85l-.25-7.312-.11-2.29c-.03-1.824-.03-1.824.36-5.398 1.969-1.812 1.969-1.812 4-3 .804-2.599.804-2.599 1-5-3.161 1.37-3.993 1.99-6 5v-2l-2.312 1.063C79 186 79 186 76 185q2.904-1.472 5.813-2.937l3.269-1.653C90.069 178 90.069 178 92 178"/><path fill="#873436" d="M110 152c1.532 4.084.63 7.795 0 12l-1-3H9v-4h89v-4l12 1z"/><path fill="#c2bd65" d="m33.125 132.688 2.633.011C38 133 38 133 40 135l-3 1-1 5h6v2h4c.435 5.224.435 5.224 0 8-2.97 3.13-5.7 4.772-10.05 5.203-6.047.125-10.24-.674-14.825-4.953-1.652-3.303-1.565-5.6-1.125-9.25 3.168-5.883 6.236-9.446 13.125-9.312"/><path fill="#702b2d" d="M122 210v2H13v-4q20.653-.301 41.307-.547 9.59-.112 19.179-.252 9.249-.135 18.498-.233 3.534-.042 7.068-.1c3.292-.053 6.584-.087 9.877-.117l2.97-.06 2.716-.014 2.36-.03c2.566.448 3.462 1.306 5.025 3.353"/><path fill="#222a28" d="M106 170c1.312 3.937.243 6.125-1 10h2l.191 1.688c1.116 6.95 4.054 10.333 8.809 15.312 4.83 5.65 9.014 11.34 12.578 17.871 2.104 3.15 4.047 4.83 7.781 5.64l2.391.177 2.422.199L143 221v1h-7v2h7l.438 1.813c.45 1.749.99 3.474 1.562 5.187-1.073 2.517-2.548 4.668-4 7-2.312-.187-2.312-.187-5-1-2.501-2.964-3.147-5.653-3.75-9.375-.926-4.686-2.911-6.644-6.398-9.758-2.058-2.074-3.306-4.132-4.727-6.68-2.774-4.893-6.183-8.755-10-12.863C104 190.531 104 190.531 104 185l-3 1a81 81 0 0 1-4.687.063l-2.45-.028L92 186l1-3 1 1 .848-1.54c3.029-5.2 6.37-8.822 11.152-12.46"/><path fill="#e5806d" d="M139.75 141.688c3.963.38 5.432 1.575 8.25 4.312 1.405 2.81 1.249 4.888 1 8-1.5 2.375-1.5 2.375-3 4l1 2c.136 3.005.043 5.99 0 9h-15l.098-9.277c.215-2.637.215-2.637-1.098-3.723-.293-2.932-.5-5.145 0-8 2.438-2.937 2.438-2.937 5-5 1-1 1-1 3.75-1.312"/><path fill="#cfd0d2" d="m144.813 107.375 1.832 1.336c6.088 3.332 12.46 3.589 19.23 3.477l2.396-.009c4.16-.04 8.117-.313 12.229-.992 5.733-.759 9.652 1.974 14.5 4.813l-2 17-8-1 3-1c.09-.922.09-.922.184-1.863l.254-2.45c.08-.8.162-1.6.246-2.425C189 122 189 122 190 119l-2.312-.875C185 117 185 117 182 115c-3.053.278-5.923.695-8.875 1.531-9.168 2.023-20.974.985-29.187-3.656-4.524-2.54-8.878-2.248-13.938-1.875l1-5c5.587-1.277 8.925-1.87 13.813 1.375"/><path fill="#e48041" d="M14 190h19v16H12z"/><path fill="#fdf8ce" d="M201 156h35v9q-6.51.363-13.025.647-2.215.102-4.429.228c-2.124.118-4.248.21-6.374.297l-3.872.19c-3.3-.362-3.3-.362-5.748-1.998C201 162 201 162 201 156"/><path fill="#b2454b" d="M218 168h15c-1.386 3.466-2.38 5.816-4.383 8.77-.445.66-.89 1.32-1.347 2.001l-1.395 2.042-1.418 2.1A1523 1523 0 0 1 221 188l15 1v1h-25c-1-10-1-10 .688-12.125L214 176c1.504-2.603 2.727-5.272 4-8"/><path fill="#f0a3a9" d="M67 178c3.069 1.613 5.968 3.155 8 6 .688 3.688.688 3.688 1 7l-2.336-.254-3.039-.309-3.023-.316c-2.586-.332-2.586-.332-4.602.879-2 .04-4 .043-6 0v2c-6.094-2.141-6.094-2.141-8-5 0-3.34 1.003-5.005 2.813-7.812C56.572 176.92 61.385 177.104 67 178"/><path fill="#7f493c" d="M236 61h1v129h-1v-23h-29l-1 2-1-3c1-1 1-1 3.867-1.114l3.793.016 3.684.008 4.719.028L236 165v-55h-24l4-5v2h20v-3h-3v-5h3z"/><path fill="#d48359" d="M9 163h1l.184 3.578.254 4.672.119 2.355.127 2.286.11 2.094c.158 2.065.158 2.065.788 4.21L12 184l-1 1a101 101 0 0 0-.535 5.129l-.264 3.135-.264 3.298-.275 3.311Q9.325 203.936 9 208h4v4H4q-.186-8.056-.275-16.113a537 537 0 0 0-.102-5.47C3.17 170.969 3.17 170.969 9 163"/><path fill="#f5edb7" d="M210 190h26v6h-3v3h-30v-2h-2c.375-1.937.375-1.937 1-4 2.463-1.231 4.28-1.072 7-1z"/><path fill="#29b6c0" d="M157 197c2.688 1.5 2.688 1.5 4 4 .272 2.881-.036 5.271-1 8-2.568 2.862-4.38 3.823-8.062 4.875-3.123.133-4.42-.077-6.938-1.875-2.049-3.074-2.316-3.976-2.375-7.5l-.086-2.344c.461-2.156.461-2.156 2.172-3.91 3.965-2.158 7.904-1.879 12.289-1.246"/><path fill="#bbab8b" d="M218 93h18v6h-3v5h3v3h-20z"/><path fill="#e58344" d="M18 175h17v14H17c0-8 0-8 1-14"/><path fill="#1d2221" d="M124 138v2l2 1-1.645.7-2.168.988-2.144.949c-2.716 1.812-3.685 3.392-5.043 6.363-.573 3.56-.573 3.56-.812 7.438-.785 8.367-3.46 15.058-7.188 22.562h-2v-8c-5.012 3.844-8.169 7.337-11 13-2-2-2-2-2.625-5.187.8-4.883 2.545-6.247 6.316-9.239 3.302-2.251 6.674-3.916 10.309-5.574 2.277-2.277 1.898-9.048 2.207-12.168 1.32-6.383 4.566-10.118 9.793-13.832 2-1 2-1 4-1"/><path fill="#d86039" d="m196 129 1 2h39v12h-40v-1l8-1 1-5h1v5h9l1-4v4h7v-9h-27z"/><path fill="#bb4827" d="M14 161h95v1c-8.03.715-15.938 1.107-24 1v17h-2v-17q-8.304.178-16.608.372-2.827.066-5.654.125-4.054.088-8.11.187l-2.569.05c-3.842-.27-3.842-.27-7.059 1.266-2 .04-4 .043-6 0v-2H19l-1 3-4-1z"/><path fill="#eeb278" d="M197 125h39v6h-39z"/><path fill="#1d1f1f" d="M195 144c4.143 4.01 5.062 6.126 5.813 11.813.784 4.92 1.724 7.514 5.187 11.187 3.731 7.606 5.436 14.566 5 23l-1 2h-4l.688-3.75c.717-6.077-.955-11.464-2.688-17.25l.496 2.137c.521 2.96.603 5.674.566 8.676l-.027 2.957L205 187l-3-1-.367-2.633-.508-3.492-.492-3.445c-.609-3.3-1.546-6.262-2.633-9.43-1.283-5.64-2.314-11.195-2-17l-3-1h2z"/><path fill="#f4ebb4" d="M200 200v3h36v5h-45c1.895-3.79 4.267-8 9-8"/><path fill="#e87882" d="m48 186 1.46 1.277 1.915 1.66 1.898 1.653c1.683 1.48 1.683 1.48 3.727 2.41v-2c11.522-2.665 11.522-2.665 17 0a61 61 0 0 1-7.187 4.125l-2.168 1.07L63 197l1.61-.691 2.14-.871 2.11-.88c2.44-.636 3.78-.36 6.14.442-5.34 4.45-8.456 6.288-15.5 6.313l-3.406.05c-3.375-.396-4.722-.974-7.094-3.363-.96-2.882-1.106-4.699-1.062-7.687l.027-2.45z"/><path fill="#323231" d="M126 113c1.563 1.438 1.563 1.438 3 4-.078 2.219-.078 2.219-.41 4.66l-.32 2.461L128 126l1.709.076q3.895.177 7.791.362l2.688.119c5.318.254 10.538.71 15.812 1.443v1h-29v9c.724-.01 1.447-.02 2.193-.032 14.421-.18 28.521-.06 42.807 2.032v1a604 604 0 0 1-5.937.563l-3.34.316c-3.505.114-6.654-.17-10.115-.605-5.37-.564-10.776-.654-16.17-.837l-3.635-.13q-4.401-.159-8.803-.307c.964-19.005.964-19.005 2-27"/><path fill="#59d5be" d="m138.375 139.813 3.387.04q4.119.054 8.238.147v1l-2.527.332c-7.476 1.053-14.669 2.266-21.473 5.668-1.134 2.017-1.134 2.017-2 4h-3l-.812 2.563c-1.236 3.576-2.665 6.976-4.188 10.437l-3-1c-.235-6.691-.188-12.325 4.25-17.75 6.879-5.628 12.544-5.635 21.125-5.437"/><path fill="#d8c7a4" d="m113.16 127.902 3.903.035 3.91.028L124 128v3l-12 2v11l2 1-4 9c-4.921.167-8.503.248-13-2 1-3 1-3 4-5 .25-2.584.25-2.584 0-5 2.622 1.049 3.794 1.65 5.25 4.125L107 148c1.381-4.477 1.37-9.132 1.605-13.775.354-6.193.354-6.193 4.555-6.323"/><path fill="#38403f" d="M171.059 155.629C173 156 173 156 175.5 157.438c2.283 3.9 1.763 7.087 1.5 11.562h-15c-.357-8.086-.357-8.086 1-11.562 2.613-1.878 4.888-2.002 8.059-1.81"/><path fill="#2b3533" d="M143 156c2.438 1.438 2.438 1.438 4 4 .324 3.082.183 5.884 0 9h-15c-.483-8.208-.483-8.208 1.563-11.562 3.392-2.001 5.564-1.991 9.437-1.438"/><path fill="#c05041" d="M77 144c2 4 2 4 2.563 6.094 1.42 2.34 1.42 2.34 5.132 2.515q2.214.1 4.43.141l2.285.09c1.863.07 3.726.118 5.59.16l1 4H9v-1h66l1-11z"/><path fill="#cd623a" d="m232 60 4 1v32h-18v-3h14z"/><path fill="#e68243" d="M19 163h18v9H18z"/><path fill="#d95e35" d="M76 134h32v14l-2 1-1.375-2.937c-1.283-3.134-1.283-3.134-3.625-4.063l1 5-5 3v-15H77v5h-1z"/><path fill="#1f1f1f" d="M156 76h3c-.491 6.366-.997 12.693-2 19-1.46-.114-2.917-.242-4.375-.375-.812-.07-1.624-.14-2.46-.21C148 94 148 94 146 92c-.464-7.304-.464-7.304 2-11 3.08-.257 5.211-.394 8 1z"/><path fill="#c4c5c7" d="m195 116-2 17-8-1 3-1c.09-.922.09-.922.184-1.863l.254-2.45c.08-.8.162-1.6.246-2.425C189 122 189 122 190 119l-2.312-.875C185 117 185 117 182 115c-2.32-.366-2.32-.366-4.887-.414l-2.842-.117-2.958-.094-2.995-.117q-3.658-.141-7.318-.258v-1l2.887-.184 3.8-.254c1.242-.08 2.483-.162 3.762-.246 9.52-.848 14.875-1.034 23.551 3.684"/><path fill="#6e2b2d" d="m189 208 48 1v7l-1-4h-48z"/><path fill="#f8e0d4" d="M73 144q.061 3.5 0 7c-1.692 1.692-3.744 1.292-6.062 1.375-5.668-.03-9.781-1.445-13.938-5.375v-2h4v-2c6.068-1.084 10.101-.79 16 1"/><path fill="#f4d9c2" d="M47 139c2.543 2.543 5.08 5.084 7.563 7.688 3.725 3.534 6.598 4.535 11.687 4.937l2.703.227L71 152c-3.05 2.994-5.63 3.408-9.844 3.459L59 155.437l-2.156.061c-3.4-.003-5.478-.243-8.293-2.205-1.779-2.63-2.161-4.269-2.364-7.418l-.207-2.633C46 141 46 141 47 139"/><path fill="#171311" d="M206 76c2.59.381 3.779.773 5.633 2.672 5.117 7.126 7.456 12.4 6.367 21.328-1.783 5.836-4.907 9.71-10 13-2.187-.379-2.187-.379-4-1l1.426-1.066c5.656-4.485 8.114-8.424 9.074-15.746-.195-5.235-2.657-9.88-5.5-14.188l-3-2z"/><path fill="#c55129" d="M83 40h1v57h30l1-2 2 4a5235 5235 0 0 1-14.044.055q-2.391.008-4.781.02c-2.287.013-4.573.018-6.859.023l-2.171.015c-1.716 0-3.43-.051-5.145-.113-1-1-1-1-1.12-3.322l.006-3.116v-3.518l.016-3.83.005-3.896q.006-5.137.024-10.273.014-5.239.02-10.477Q82.967 50.284 83 40"/><path fill="#3e3e3e" d="M162 83c6.055-.195 6.055-.195 8 0 2 2 2 2 2.188 5.875-.028 2.865-.415 5.366-1.188 8.125-1.626-.114-3.25-.242-4.875-.375-.905-.07-1.81-.14-2.742-.21C161 96 161 96 159 94c.25-2.562.25-2.562 1-5 2.957-1.478 5.742-1.06 9-1v-3l-8 1z"/><path fill="#e3d7a3" d="M212 147q2.007.47 4 1h8l-1 5-2.625-.125c-3.333-.05-3.333-.05-6.125 1.125-4.446 1.368-8.635 1.164-13.25 1l-1 4v-5h4l-1-5c2.763-.597 5.16-1 8-1z"/><path fill="#0c0908" d="m134.5 62.813 2.906-.043C140 63 140 63 143 65l-2.055.043c-7.934.407-14.48 2.12-20.61 7.387-4.431 5.21-4.673 12-5.335 18.57h-2c-.926-13.492-.926-13.492 3.367-19.281 5.35-5.632 10.259-8.854 18.133-8.906"/><path fill="#9c3c3f" d="M110 152c1.532 4.084.63 7.795 0 12h-1v-7l-2.75-.375c-2.84-.546-4.776-1.198-7.25-2.625v4H25v-1h73v-4l12 1z"/><path fill="#1f1f1f" d="m136 96 2.125 2.188q1.434 1.41 2.875 2.812l2.688 2.625c8.404 6.715 20.1 6.031 30.312 6.375v1l-2.152.184-2.786.254c-.916.08-1.833.162-2.777.246-2.247.076-2.247.076-3.285 1.316-9.374.238-16.343-2.895-24-8-2.509-.456-2.509-.456-5.187-.625l-2.731-.227L129 104v-1h9l-2-4z"/><path fill="#21d1d6" d="m147.875 198.77 2.125.042 2.125.02C154 199 154 199 156 200c.358 5.368.358 5.368-1.062 7.875-3.036 1.763-5.516 1.498-8.938 1.125-2.15-3.224-2.383-4.267-2-8 2-2 2-2 3.875-2.23"/><path fill="#262c29" d="M202 168c3.109 2.534 3.774 4.97 4.688 8.813l.761 3.082c.863 4.866 1.35 7.908-1.449 12.105l3 1-2.812-.187c-3.167-.137-3.167-.137-4.938 1.687L200 196h-2a141 141 0 0 0-5 5l-2-1 1.61-1.758c3.843-4.25 7.3-8.423 10.39-13.242h1c.253-6.069-.302-11.162-2-17"/><path fill="#e9dda4" d="M201 203h35l-1 3h-34z"/><path fill="#fbf6c9" d="M210 190h26v4h-26z"/><path fill="#fca58a" d="M138.938 144.688c3.062.312 3.062.312 5 1.5C145 148 145 148 144.813 150.563 144 153 144 153 142 155c-2.323.4-4.657.74-7 1-2-3-2-3-1.75-6.062.995-3.9 1.64-4.82 5.688-5.25"/><path fill="#d26542" d="M112 133h12v5c-1.61 1.547-1.61 1.547-3.75 2.75l-2.11 1.234C116 143 116 143 112 144z"/><path fill="#54373d" d="M155 169c3.125.375 3.125.375 6 1l1 5c-2.707 2.548-4.333 3.905-8.062 4.438-3.216-.48-4.654-1.154-6.938-3.438v-2l4 2 .875-2.375C153 171 153 171 155 169"/><path fill="#df754a" d="M205 136h1v5h9l1-4v4h7v-5h1v5h9l1-4v4h2v2h-40v-1l8-1z"/><path fill="#b4967a" d="m231.625 97.938 2.477.027L236 98l-3 1v5h3v3h-20v-1l9-1v-6c2.405-1.203 3.95-1.1 6.625-1.062"/><path fill="#682c2f" d="m208.96 164.886 3.919.016 2.08.005c2.202.005 4.403.018 6.603.03l4.467.014c3.657.01 7.314.03 10.971.049v25h-1v-23h-29l-1 2-1-3c1-1 1-1 3.96-1.114"/><path fill="#de9151" d="m121.5 155.688 2.5.312c2 3 2 3 1.75 6.063C125 165 125 165 123 167c-5.568-.568-5.568-.568-7-2 .793-8.724.793-8.724 5.5-9.312"/><path fill="#38c9b6" d="m191 149 5 1c1.198 5.542 2.623 13.754 0 19h-2c-2.015-4.219-2.414-8.209-2.625-12.812l-.117-2.1A693 693 0 0 1 191 149"/><path fill="#222c2a" d="M195 144c5.748 5.563 6.361 11.118 7 19-.356 3.213-1.052 5.891-2 9h-1q-.76-3.81-1.5-7.625l-.434-2.16c-.796-4.136-1.226-7.98-1.066-12.215l-3-1h2z"/><path fill="#c5c6c8" d="m180.813 105.938 2.957.027L186 106c-5.7 4.683-11.218 4.183-18.312 4.188l-2.803.037c-5.367.011-9.812-.455-14.885-2.225v-1l1.757.016q3.965.029 7.93.046l2.764.026 2.686.01 2.46.016c4.495-.213 8.663-1.231 13.215-1.177"/><path fill="#eba558" d="M122.625 182.313C125 183 125 183 126 184c.188 2.938.188 2.938 0 6-2 2-2 2-5 2.25-3-.25-3-.25-5-2.25.188-3 .188-3 1-6 3-2 3-2 5.625-1.687"/><path fill="#d0c97d" d="M28 132c9.927-.782 9.927-.782 14 2.188L44 137l1.813 2.25c1.692 3.92 1.435 7.542 1.187 11.75h-1v-8h-4v-2l-1.875.563C38 142 38 142 36 141c-.125-2.375-.125-2.375 0-5l2-2-10-1z"/><path fill="#ede2a8" d="M206.563 191.938 210 192v2h26v2l-35 1c1.247-4.987 1.247-4.987 5.563-5.062"/><path fill="#e18e4d" d="M183.5 159.875C187 160 187 160 188 161c.188 3.438.188 3.438 0 7l-2 2c-2.779-.214-4.552-.701-6.875-2.25C178 166 178 166 178.25 163.375c1.163-3.683 1.137-3.353 5.25-3.5"/><path fill="#d9c9a3" d="m203 158 5 1v4l3.84-.035 5.097-.028 2.518-.025c5.597-.022 10.992.376 16.545 1.088v1q-6.538.363-13.08.647-2.224.102-4.45.228c-2.13.118-4.262.21-6.396.297l-3.888.19C205 166 205 166 203.038 164.13 202 162 202 162 202.312 159.75z"/><path fill="#c9cacc" d="M212 106c-5.93 5.232-10.94 6.218-18.633 6.266-2.532-.285-4.178-.995-6.367-2.266l1-3c3-1 3-1 4.91-.047L195 108c5.758.124 11.879-3.707 17-2"/><path fill="#e67f41" d="M82 191v11l-2-4-1 2H68l2.438-1.812C73.223 196.19 73.223 196.19 74 193c2.896-1.448 4.742-2 8-2"/><path fill="#c4a788" d="M101 142c1.875.625 1.875.625 4 2 1.313 3 1.313 3 2 6l-1 2h3v2c-4.548.178-7.88-.002-12-2 1-3 1-3 4-5 .25-2.584.25-2.584 0-5"/><path fill="#a8605b" d="m218 168 2 1-1.496 2.922-1.941 3.828-.987 1.922c-1.587 3.141-2.717 5.891-3.576 9.328h9v1l15 1v1h-25c-1-10-1-10 .688-12.125L214 176c1.497-2.591 2.758-5.279 4-8"/><path fill="#dacdaf" d="M219 93h17v4h-17z"/><path fill="#54d1bb" d="M106 170c1.38 4.14.163 6.185-1.61 10.035C103 182 103 182 99.25 183.063L96 183c.448-4.65 2.022-6.37 5.563-9.312l2.503-2.114z"/><path fill="#c7c7c9" d="m186 134 6 2v10l-9-2 3-1z"/><path fill="#222726" d="M124 138v2l2 1-1.645.7c-4.52 2.06-7.368 3.507-9.355 8.3-.707 2.693-.707 2.693-1 5l-3-2c.284-5.814 2.817-9.199 7-13 2.193-1.272 3.459-2 6-2"/><path fill="#e3969d" d="M74 191c-4.387 2.925-8.06 5.176-13.437 4.688L58 195c.125-1.875.125-1.875 1-4 5.24-2.882 9.57-1.569 15 0"/><path fill="#d2c4a8" d="M111 133h1v11l2 1-4 9-1-2h-3l3-13h1z"/><path fill="#050606" d="m101 170-.875 1.676c-1.601 3.308-2.836 6.74-4.125 10.18C95 184 95 184 93 185c-1.617-3.234-1.476-5.428-1-9 2.336-2.807 5.182-6 9-6"/><path fill="#1fb1bd" d="M143 201h1l2 7 10 1-1 4c-5.351 1.216-5.351 1.216-8.25.25C145 212 145 212 143 209c-.258-2.695-.089-5.285 0-8"/><path fill="#eecdb5" d="m47 144 1.563 2.25c4.902 5.531 9.564 7.147 16.714 7.672L67 154v1a440 440 0 0 1-7.75.25l-2.21.102c-3.544.064-5.617-.05-8.54-2.133-2.102-3.11-1.782-5.557-1.5-9.219"/><path fill="#171615" d="m126 103 13 1c-3.228 2.152-4.284 2.2-8 2l-.367 2.371-.508 3.067-.492 3.058L129 117l-2 1a701 701 0 0 1-.062-4.812l-.036-2.708C127 108 127 108 128 105h-2z"/><path fill="#ebebeb" d="M150 83c2.625.375 2.625.375 5 1 .125 2.875.125 2.875 0 6l-2 2c-2.625-.375-2.625-.375-5-1-.125-2.875-.125-2.875 0-6z"/><path fill="#1b1b1b" d="M162 83c6.152-.098 6.152-.098 8 0 1 1 1 1 1.063 4.563L171 91l-3.875-.125c-2.144-.117-2.144-.117-4.125.125l-2 2-1-4c2.957-1.478 5.742-1.06 9-1v-3l-8 1z"/><path fill="#56d6bf" d="M167 224h7c-.254 1.482-.53 2.96-.812 4.438l-.458 2.496L172 233l-3 1c-1.604-3.508-2.22-6.144-2-10"/><path fill="#e18774" d="M140.063 141.938 143 142c-2.404 3.607-3.947 3.855-8 5-1.009 4.236-1.009 4.236-.062 8.375L136 157l-3 2c-2.443-3.665-2.847-6.74-2-11 2.438-2.937 2.438-2.937 5-5 1-1 1-1 4.063-1.062"/><path fill="#b7b055" d="M20 145h2l1.5 2.25c3.52 3.872 7.626 5.085 12.5 6.75v1c-9.64.567-9.64.567-14-3-2-3-2-3-2-7"/><path fill="#863337" d="m99 154 10 3v2H85v-1h14z"/><path fill="#e8a56e" d="M9 161h4l-1 19-2 1z"/><path fill="#3e3e3e" d="m139 64.75 3.75-.016C146 65 146 65 149 67l1 2-12 3 5-5h-14c3.68-2.453 5.623-2.268 10-2.25"/><path fill="#3d8578" d="M202 168c3.109 2.534 3.774 4.97 4.688 8.813l.761 3.082c.55 3.105.65 5.959.551 9.105h-3l-.148-2.562c-.421-6.385-1.046-12.296-2.852-18.438"/><path fill="#090909" d="M184 109c-4.762 4.057-9.218 4.13-15.312 4.063l-3.239-.028L163 113l1-2a94 94 0 0 1 6.813-1.062c4.797-.562 4.797-.562 9.511-1.56C182 108 182 108 184 109"/><path fill="#333" d="M175 84h7v3l-4 1-2 9h-2z"/><path fill="#1d1a19" d="M149 221v2h-3l-1 6h-3l1-5h-7v-2c4.386-.702 8.558-1.108 13-1"/><path fill="#56d8c1" d="M136 225h6c-.486 3.123-.999 5.996-2 9l-3-1z"/><path fill="#f28846" d="M31 196h1v9H15c3.988-1.994 5.471-2.227 9.75-2.125l2.984.055L30 203z"/><path fill="#ddd" d="m161.285 84.902 2.778.035 2.785.028L169 85v3l-1.934.148-2.504.227c-.823.07-1.647.14-2.496.21L160 89l-1 2-2 1c1.036-6.959 1.036-6.959 4.285-7.098"/><path fill="#c3552e" d="m177 51 2 1v13l-3 1-3-2h3l-.062-3.687c-.006-3.233.274-6.162 1.062-9.313"/><path fill="#dc6ba9" d="M131.063 197.938 134 198c.625 1.875.625 1.875 1 4l-2 2c-2.625-.375-2.625-.375-5-1-.562-1.937-.562-1.937-1-4 1-1 1-1 4.063-1.062"/><path fill="#bc4825" d="M43 161v4h-6v-2H22v-1q3.843-.253 7.688-.5l2.185-.145c3.715-.237 7.404-.414 11.127-.355"/><path fill="#333" d="m136 96 8 8-1 3-1.672-.96c-2.613-1.167-4.734-1.44-7.578-1.665l-2.703-.227L129 104v-1h9l-2-4z"/><path fill="#d082b0" d="M190 180a100 100 0 0 1 5 0c1 1 1 1 1.063 3.563L196 186l-3 1c-2.187-1.437-2.187-1.437-4-3z"/><path fill="#d67daf" d="M177 199q2.514.428 5 1v6l-5-1a88 88 0 0 1-1-5z"/><path fill="#333e3c" d="m158.328 139.023 2.422.157 2.5.195 2.547.172c2.068.14 4.136.296 6.203.453v1c-7.532.757-14.503 1.144-22 0 2.97-1.72 4.915-2.22 8.328-1.977"/><path fill="#393939" d="M171 130c7.877-.411 14.503.564 22 3-3 2-3 2-5.085 1.86l-2.364-.54-2.569-.566-2.67-.629-2.705-.605A677 677 0 0 1 171 131z"/><path fill="#0f0c0b" d="M212 104h3c-.253 3.421-1.308 4.308-3.812 6.813C208 113 208 113 205.8 112.637L204 112l1.496-1.242 1.941-1.633 1.934-1.617c1.737-1.43 1.737-1.43 2.629-3.508"/><path fill="#e27f40" d="m122 185 1 2h2l-1 5h-6l-2-4 4-1v2l2 1z"/><path fill="#d2875f" d="M90 181c-.25 2.375-.25 2.375-1 5-2.563 1.794-3.831 2-7 2l-1-4 1.813-.375C85.55 182.843 87.12 181 90 181"/><path fill="#d8cea9" d="M200 196c3.4 1.133 4.053 2.125 6 5h-5l-1 2v-3l-5 4-2-1z"/><path fill="#984731" d="m91 178 1 2-2.875 1.313C85.8 182.793 85.8 182.793 84 186v-2l-2.312 1.063C79 186 79 186 76 185q2.904-1.472 5.813-2.937l3.269-1.653C88 179 88 179 91 178"/><path fill="#ac454a" d="M216 168h2c-1.22 4.036-2.539 7.554-5 11l-3 1v-4h2l.875-2.312C214 171 214 171 216 168"/><path fill="#262b27" d="m106 166 2 1c-2.4 4.942-5.523 7.043-10 10l.488-1.871c.56-2.101.56-2.101.7-4.191.812-1.938.812-1.938 3.75-3.75z"/><path fill="#272728" d="M155 110h19v1l-2.152.184-2.786.254c-.916.08-1.833.162-2.777.246-2.247.076-2.247.076-3.285 1.316-2.937.25-2.937.25-6 0z"/><path fill="#b84021" d="M77 144c2.12 3.534 2.532 6.944 3 11h-4a758 758 0 0 1-.062-4.937l-.036-2.778C76 145 76 145 77 144"/><path fill="#f08847" d="M111 199h2v4H96v-1c5.08-.847 9.848-1.09 15-1z"/><path fill="#ea7f8a" d="M75 195c-2.688 2.252-4.646 3.882-8 5l-3-2c3.818-3.028 6.186-4.494 11-3"/><path fill="#212220" d="M95 182h8l1 3c-2.882.96-4.699 1.106-7.687 1.063l-2.45-.028L92 186l1-3 1 1z"/><path fill="#ea5772" d="M155 171q2.514.428 5 1l-1 4-5 1a100 100 0 0 1 0-5z"/><path fill="#985f5e" d="M110 152c1.532 4.084.63 7.795 0 12h-1v-7l-2.937-.375L103 156l-1-2h8z"/><path fill="#d5bb99" d="m101 142 4 2c-.312 2.375-.312 2.375-1 5-3 2-3 2-6 2v-2l3-2c.25-2.584.25-2.584 0-5"/><path fill="#ceced0" d="M135 99h2l1 4c-1.791.054-3.583.093-5.375.125l-3.023.07C127 103 127 103 125 101c.957-.09.957-.09 1.934-.184l2.504-.254c.823-.08 1.647-.162 2.496-.246 2.053-.105 2.053-.105 3.066-1.316"/><path fill="#d77b49" d="M75 185h7v4l-6 2z"/><path fill="#0a0a0a" d="m126 103 13 1c-3.687 2.458-6.697 3.012-11 4v-3h-2z"/><path fill="#c07f53" d="m31 47 2 1c-3.175 2.722-5.943 4.856-10 6-2.152-.457-2.152-.457-4-1q2.93-1.544 5.875-3.062l3.305-1.723z"/><path fill="#55e5de" d="m147 201 5 1-1 4-5-1z"/><path fill="#ef7988" d="M54 194c5.75.75 5.75.75 8 3v2c-5.75-.875-5.75-.875-8-2z"/><path fill="#213432" d="m202 191-1 5h-3c-2.688 2.438-2.688 2.438-5 5l-2-1a478 478 0 0 1 3.813-4.5l2.144-2.531C199 191 199 191 202 191"/><path fill="#bb665b" d="m212 147 4 1-1 5-4-1z"/><path fill="#914543" d="M225 99h4l1 6h-5z"/><path fill="#414141" d="M156 76h3l-1 12h-1c-.982-4.053-1.082-7.839-1-12"/><path fill="#0a0807" d="M150 65c2.164-.293 2.164-.293 4.625-.187l2.477.082L159 65v2l-11 1z"/><path fill="#e3dcac" d="M206.563 191.938 210 192v2h-3v2l-6 1c1.126-4.985 1.126-4.985 5.563-5.062"/><path fill="#d7d7d7" d="M163 90h6l-2 4h-5z"/><path fill="#1a1818" d="M151 220h9l1 3-11-1z"/><path fill="#3a5752" d="M152 172h1l.313 2.375c.463 2.955.463 2.955 3.687 4.625-3.367.23-5.414.34-8.375-1.375L147 176v-2l4 2z"/><path fill="#b75c56" d="M219 148h5l-1 5-4-1z"/><path fill="#e09782" d="M140.313 141.688 143 142c-2.432 3.648-3.939 3.73-8 5l-2 2-1-2c4.185-4.923 4.185-4.923 8.313-5.312"/><path fill="#2e3937" d="M200 159c1.45 2.341 2.043 3.58 1.758 6.36l-.633 2.39-.617 2.422L200 172h-1c-1.429-8.429-1.429-8.429 1-13"/><path fill="#f8b556" d="m181 161 1 2h3l1-2 1 4h-4l-1 2v-2h-3z"/><path fill="#181718" d="M145 162h1v6h-7z"/><path fill="#b96359" d="M204 148h4l-1 5-4-1z"/><path fill="#d45231" d="M105 135h3v7h-3a129 129 0 0 1-1-6z"/><path fill="#b5b6b7" d="M186 106c-3.745 3.745-7.983 3.69-13 4l4-1v-2c3.073-.91 5.801-1.089 9-1"/><path fill="#303030" d="M159 91h2l1 2c2.314.73 4.648 1.401 7 2v1c-6.055.195-6.055.195-8 0l-2-2z"/><path fill="#444240" d="M115 81h1l1 13-3 1-1-4h2z"/><path fill="#4ebda9" d="m106 170 1 3-2.187 1.25c-2.793 1.737-5.283 3.654-7.813 5.75 1.382-3.21 2.924-5.05 5.625-7.25l1.914-1.578z"/><path fill="#251710" d="m133 64-3 1-1.5 1.5C127 68 127 68 124 69v-4c3.426-1.618 5.38-2.34 9-1"/><path fill="#4cb8a5" d="M206 180c2.29 3.435 2.178 4.985 2 9h-3z"/><path fill="#150f0a" d="M101 170c-.996 2.491-1.58 3.756-3.937 5.125L95 176l-3 2c1.526-3.885 4.502-8 9-8"/><path fill="#e38b51" d="M124 159h2l-1 6-5 1 2-4h2z"/><path fill="#121212" d="M176 87h1l-1 10h-2q.212-2.22.438-4.437c.08-.824.162-1.648.246-2.497C175 88 175 88 176 87"/><path fill="#232323" d="M148 81c2.875-.125 2.875-.125 6 0l2 2c-2.601 1.3-5.14 1.565-8 2z"/><path fill="#d4c79f" d="M229 158h4l-1 5h-3z"/><path fill="#eee6bb" d="M230 157h6v6l-3-1v-4z"/><path fill="#fdc3ab" d="M136 147h4v4h-5z"/><path fill="#f4d0bc" d="M72 139c2.68 4.019 2.156 6.242 2 11h-1v-6h-5l4-2z"/><path fill="#c4ad8c" d="M111 133h1v11h-3v-5h1z"/><path fill="#d988b5" d="M131.063 197.938 134 198l-2 1v3h-4l-1-3c1-1 1-1 4.063-1.062"/><path fill="#d4743e" d="M186 161h2v7l-4-1v-2l2-1z"/><path fill="#d2d2d2" d="M139 159h5l-1 4-4-1z"/><path fill="#dc7344" d="m100 143 2 4-5 3c.613-2.962 1.254-4.38 3-7"/><path fill="#f3f3f3" d="M164 85h5v3h-8l3-1z"/><path fill="#232323" d="M162 83h8l-1 2c-2.649.594-5.292.742-8 1z"/><path fill="#d960a5" d="M180 200h2v6h-4v-2h2l-1-3z"/><path fill="#cd8185" d="m65 189 9 2c-4 2-4 2-6.75 1.125L65 191z"/><path fill="#d960a4" d="M193 181h3v5h-4v-2h2z"/><path fill="#f8b556" d="M118 159c1.938.813 1.938.813 4 2l1 3-6-1z"/><path fill="#4dcbb7" d="m175 144 6 1-1 4h-3v-4z"/><path fill="#dddddf" d="m181 106-4 1v2l-7-1v-1c3.734-.879 7.168-1.09 11-1"/></svg>